PathFileType	4	(X/Y/Z)	/Users/itak/Documents/Research/Walk-IL/dataset/trc/00489_00167.trc
DataRate	CameraRate	NumFrames	NumMarkers	Units	OrigDataRate	OrigDataStartFrame	OrigNumFrames
100.000000	100.000000	4	53	mm	100.000000	145	581
Frame#	Time	RPSI			LPSI			L3			STRN			T10			C7			CLAV			RBAK			LBAK			LSHO			LUPA			LAEL			LAOL			LWTS			LWPS			LFRA			LIFD			LHPS			LHTS			RSHO			RUPA			RAEL			RAOL			RWTS			RWPS			RFRA			RIFD			RHTS			RHPS			RBHD			LFHD			RFHD			LBHD			LHIP			RHIP			RASI			LASI			LKNE			LTHI			LANK			LTIP			LTOE			LMT1			LMT5			LHEE			RKNE			RTHI			RANK			RTIP			RTOE			RMT1			RMT5			RHEE			
		X1	Y1	Z1	X2	Y2	Z2	X3	Y3	Z3	X4	Y4	Z4	X5	Y5	Z5	X6	Y6	Z6	X7	Y7	Z7	X8	Y8	Z8	X9	Y9	Z9	X10	Y10	Z10	X11	Y11	Z11	X12	Y12	Z12	X13	Y13	Z13	X14	Y14	Z14	X15	Y15	Z15	X16	Y16	Z16	X17	Y17	Z17	X18	Y18	Z18	X19	Y19	Z19	X20	Y20	Z20	X21	Y21	Z21	X22	Y22	Z22	X23	Y23	Z23	X24	Y24	Z24	X25	Y25	Z25	X26	Y26	Z26	X27	Y27	Z27	X28	Y28	Z28	X29	Y29	Z29	X30	Y30	Z30	X31	Y31	Z31	X32	Y32	Z32	X33	Y33	Z33	X34	Y34	Z34	X35	Y35	Z35	X36	Y36	Z36	X37	Y37	Z37	X38	Y38	Z38	X39	Y39	Z39	X40	Y40	Z40	X41	Y41	Z41	X42	Y42	Z42	X43	Y43	Z43	X44	Y44	Z44	X45	Y45	Z45	X46	Y46	Z46	X47	Y47	Z47	X48	Y48	Z48	X49	Y49	Z49	X50	Y50	Z50	X51	Y51	Z51	X52	Y52	Z52	X53	Y53	Z53	

146	1.45	-1718.31005859375	974.849365234375	-279.9626770019531	-1642.920043945312	973.203369140625	-400.4746398925781	-1667.835815429688	1066.890258789062	-315.6487426757812	-1417.955444335938	1242.993286132812	-182.0466918945312	-1674.43603515625	1192.2548828125	-321.8414306640625	-1607.9462890625	1457.360961914062	-269.9087219238281	-1441.39306640625	1357.772827148438	-198.7113037109375	-1713.26220703125	1339.90087890625	-217.6837768554688	-1591.655029296875	1410.039916992188	-375.0362854003906	-1462.993774414062	1423.973266601562	-395.1697692871094	-1426.828247070312	1308.4853515625	-490.1820373535156	-1398.829223632812	1092.451904296875	-518.6607666015625	-1500.960327148438	1081.028686523438	-505.6113891601562	-1361.626708984375	885.873779296875	-445.5506286621094	-1369.05810546875	873.5501098632812	-518.6433715820312	-1378.19921875	1004.027648925781	-519.30859375	-1371.476806640625	722.8765258789062	-456.7498779296875	-1362.487670898438	795.1788330078125	-515.6721801757812	-1345.165649414062	800.3694458007812	-445.61181640625	-1620.96142578125	1421.704467773438	-97.21183013916016	-1674.043334960938	1363.150268554688	-37.2701416015625	-1703.65087890625	1073.94677734375	12.03222942352295	-1734.053588867188	1057.234008789062	-46.50827789306641	-1585.743408203125	872.2123413085938	5.750120639801025	-1667.08984375	854.6939697265625	36.06170654296875	-1702.539672851562	1015.186157226562	21.8498363494873	-1580.779052734375	715.868896484375	9.970470428466797	-1571.935913085938	775.2039184570312	20.36330032348633	-1646.992431640625	767.5521240234375	37.86837387084961	-1521.568603515625	1652.998779296875	-140.9368743896484	-1345.5888671875	1627.079833984375	-247.8388977050781	-1386.056640625	1633.459228515625	-123.6427688598633	-1480.803955078125	1652.5263671875	-314.2395629882812	-1474.105224609375	862.5104370117188	-436.6049194335938	-1696.016845703125	858.9784545898438	-106.9414596557617	-1572.315185546875	894.7942504882812	-102.2885208129883	-1427.341918945312	892.232666015625	-316.2190856933594	-1490.029174804688	440.7584228515625	-422.4325561523438	-1455.406494140625	594.130126953125	-425.6261901855469	-1601.874389648438	46.21084594726562	-492.2919006347656	-1509.485107421875	294.9505310058594	-453.1474304199219	-1425.588134765625	45.36373901367188	-324.83544921875	-1507.548461914062	50.69273376464844	-333.891845703125	-1459.361328125	48.79886245727539	-436.53662109375	-1669.4609375	49.12411880493164	-454.4878845214844	-1662.753540039062	464.8230590820312	-134.6881866455078	-1662.984130859375	723.0949096679688	-82.85716247558594	-1727.616088867188	40.59909820556641	-175.5286560058594	-1669.439819335938	322.168212890625	-132.8360443115234	-1509.878051757812	48.55572509765625	-137.8272552490234	-1554.730224609375	54.98703002929688	-193.2087249755859	-1614.290893554688	46.75361633300781	-100.843635559082	-1768.968627929688	33.06364059448242	-243.6338195800781	
147	1.46	-1718.008178710938	974.634521484375	-278.20947265625	-1642.569458007812	972.7791137695312	-398.7613220214844	-1667.611694335938	1066.745971679688	-313.6727600097656	-1418.006225585938	1242.763061523438	-179.4980773925781	-1674.219604492188	1192.106323242188	-319.7386474609375	-1607.793701171875	1457.172485351562	-267.5704956054688	-1441.378051757812	1357.596801757812	-196.10693359375	-1713.157958984375	1339.70068359375	-215.5430908203125	-1591.358520507812	1409.928100585938	-372.720458984375	-1462.638427734375	1423.8544921875	-392.5274353027344	-1426.226440429688	1308.606811523438	-487.5603942871094	-1397.838012695312	1092.746215820312	-516.527587890625	-1499.97900390625	1081.102294921875	-503.67919921875	-1360.36474609375	886.1029052734375	-443.6977233886719	-1367.574340820312	873.8875732421875	-516.8223266601562	-1377.042602539062	1004.378784179688	-517.2737426757812	-1369.397338867188	723.06298828125	-455.0210571289062	-1360.97314453125	795.548095703125	-513.9722290039062	-1343.770874023438	800.6111450195312	-443.8782958984375	-1621.121948242188	1421.54052734375	-94.91265869140625	-1674.340209960938	1362.99755859375	-35.062744140625	-1704.047119140625	1073.650512695312	13.85268306732178	-1734.395263671875	1057.00830078125	-44.77780914306641	-1586.23974609375	871.8480834960938	7.322173118591309	-1667.623779296875	854.3319702148438	37.55349731445312	-1702.976318359375	1014.893676757812	23.58138465881348	-1581.415771484375	715.5098266601562	11.30659198760986	-1572.512817382812	774.7772827148438	21.76252937316895	-1647.563598632812	767.1588134765625	39.16427993774414	-1521.423706054688	1652.719848632812	-138.4141235351562	-1345.386596679688	1626.751098632812	-245.1519927978516	-1385.917236328125	1633.082641601562	-120.9682159423828	-1480.536499023438	1652.343139648438	-311.6429443359375	-1473.534790039062	862.23291015625	-434.6841125488281	-1695.760498046875	858.66162109375	-105.1533737182617	-1572.185424804688	894.507568359375	-100.5397720336914	-1427.196899414062	892.2855834960938	-314.2811889648438	-1485.362060546875	440.0329895019531	-419.219970703125	-1451.6640625	593.8530883789062	-423.0267944335938	-1601.799194335938	46.43739318847656	-492.1654357910156	-1506.534301757812	294.2143859863281	-451.1454772949219	-1425.491821289062	45.21329879760742	-324.6513671875	-1507.447265625	50.65568161010742	-333.8037719726562	-1459.313842773438	48.74475479125977	-436.4964294433594	-1669.435913085938	49.58347702026367	-454.2285461425781	-1662.873168945312	464.5846252441406	-133.7436981201172	-1662.639892578125	722.7609252929688	-81.38271331787109	-1727.726318359375	40.44828033447266	-175.4053802490234	-1669.48193359375	321.8548278808594	-132.19970703125	-1509.985961914062	48.58117294311523	-137.9910583496094	-1554.790405273438	54.96065521240234	-193.342041015625	-1614.314208984375	46.77406692504883	-100.9157943725586	-1769.15966796875	32.81784820556641	-243.5127410888672	
148	1.47	-1717.697021484375	974.3671875	-276.4054870605469	-1642.219970703125	972.1795654296875	-396.9998168945312	-1667.429565429688	1066.536987304688	-311.634033203125	-1418.047607421875	1242.503051757812	-176.9388580322266	-1674.026611328125	1191.904174804688	-317.5550537109375	-1607.684692382812	1456.916137695312	-265.1563110351562	-1441.375122070312	1357.378051757812	-193.4831390380859	-1713.065185546875	1339.418212890625	-213.3011932373047	-1591.134643554688	1409.75537109375	-370.3446350097656	-1462.378295898438	1423.696411132812	-389.8697509765625	-1425.72119140625	1308.682373046875	-484.9196472167969	-1396.903930664062	1093.036254882812	-514.3943481445312	-1499.07958984375	1081.072021484375	-501.7192687988281	-1359.015014648438	886.37109375	-441.8052978515625	-1366.035278320312	874.2200927734375	-514.953369140625	-1375.8984375	1004.727844238281	-515.226318359375	-1366.405883789062	723.3832397460938	-452.9501037597656	-1359.347412109375	795.9204711914062	-512.2042846679688	-1342.238647460938	800.8829345703125	-442.0936279296875	-1621.270263671875	1421.314086914062	-92.53535461425781	-1674.611572265625	1362.781860351562	-32.77161407470703	-1704.400634765625	1073.298217773438	15.76830673217773	-1734.69482421875	1056.732666015625	-42.94213104248047	-1586.741088867188	871.3934326171875	8.959390640258789	-1668.160522460938	853.9028930664062	39.13429641723633	-1703.3779296875	1014.539978027344	25.40566444396973	-1582.093872070312	715.058837890625	12.70082473754883	-1573.117431640625	774.2644653320312	23.21791839599609	-1648.159790039062	766.696044921875	40.54055786132812	-1521.325805664062	1652.406127929688	-135.8804931640625	-1345.24853515625	1626.389892578125	-242.4855041503906	-1385.812377929688	1632.6787109375	-118.3103179931641	-1480.352783203125	1652.110107421875	-309.0411071777344	-1472.94580078125	861.8471069335938	-432.7428894042969	-1695.429565429688	858.3450927734375	-103.3043670654297	-1571.954711914062	894.204345703125	-98.75008392333984	-1427.034545898438	892.2986450195312	-312.3435668945312	-1480.194702148438	439.240234375	-415.79248046875	-1447.529052734375	593.5140991210938	-420.1291809082031	-1601.706787109375	46.8085823059082	-491.9873657226562	-1503.266479492188	293.4342956542969	-449.0084838867188	-1425.330078125	45.02241516113281	-324.4390563964844	-1507.286254882812	50.63820648193359	-333.7032775878906	-1459.245483398438	48.6712646484375	-436.4457397460938	-1669.409423828125	50.2593879699707	-453.8807067871094	-1662.9697265625	464.3319091796875	-132.7453308105469	-1662.203247070312	722.4127197265625	-79.86244964599609	-1727.84912109375	40.27992248535156	-175.2828521728516	-1669.513549804688	321.5192565917969	-131.5399017333984	-1510.094604492188	48.61063766479492	-138.1648254394531	-1554.848266601562	54.92650985717773	-193.4909973144531	-1614.343017578125	46.79647064208984	-100.9883346557617	-1769.359985351562	32.57320785522461	-243.4339294433594	
149	1.48	-1717.385375976562	974.033935546875	-274.5553588867188	-1641.899780273438	971.4012451171875	-395.2058715820312	-1667.293334960938	1066.267333984375	-309.5419311523438	-1418.070678710938	1242.20556640625	-174.3852386474609	-1673.85986328125	1191.646484375	-315.2994079589844	-1607.61181640625	1456.591064453125	-262.6709899902344	-1441.373046875	1357.111328125	-190.8501586914062	-1712.986083984375	1339.053466796875	-210.9691925048828	-1590.979248046875	1409.519287109375	-367.9151000976562	-1462.208251953125	1423.502197265625	-387.2070617675781	-1425.31396484375	1308.710205078125	-482.2714233398438	-1396.034545898438	1093.317016601562	-512.2711181640625	-1498.295043945312	1080.923461914062	-499.7466735839844	-1357.572387695312	886.6734619140625	-439.8762817382812	-1364.453247070312	874.5504760742188	-513.0398559570312	-1374.766723632812	1005.070678710938	-513.1737670898438	-1362.65576171875	723.821533203125	-450.5841674804688	-1357.61767578125	796.2926025390625	-510.3677368164062	-1340.569213867188	801.183837890625	-440.2588500976562	-1621.395751953125	1421.015258789062	-90.08448028564453	-1674.843505859375	1362.490600585938	-30.40113830566406	-1704.704833984375	1072.881713867188	17.77629470825195	-1734.946044921875	1056.408081054688	-40.99930191040039	-1587.242919921875	870.8414306640625	10.66701316833496	-1668.698608398438	853.39990234375	40.80540084838867	-1703.740600585938	1014.116516113281	27.32212066650391	-1582.80859375	714.5060424804688	14.15338230133057	-1573.74755859375	773.6598510742188	24.73601722717285	-1648.782104492188	766.1578979492188	42.00667572021484	-1521.266967773438	1652.054443359375	-133.3383483886719	-1345.163330078125	1625.998657226562	-239.8458557128906	-1385.735229492188	1632.251831054688	-115.6762008666992	-1480.24658203125	1651.823120117188	-306.43798828125	-1472.333129882812	861.3468627929688	-430.7919921875	-1695.021118164062	858.0296630859375	-101.4024276733398	-1571.609985351562	893.8934936523438	-96.92535400390625	-1426.852172851562	892.27294921875	-310.4196166992188	-1474.5654296875	438.4188232421875	-412.1846313476562	-1443.036376953125	593.140380859375	-416.9204711914062	-1601.59619140625	47.39441680908203	-491.7543640136719	-1499.71435546875	292.6647338867188	-446.7698059082031	-1425.101806640625	44.79729461669922	-324.2057800292969	-1507.056640625	50.64836883544922	-333.5926818847656	-1459.15673828125	48.58260726928711	-436.3773193359375	-1669.368896484375	51.22860336303711	-453.4361877441406	-1663.038818359375	464.0662536621094	-131.6873931884766	-1661.673095703125	722.0514526367188	-78.29668426513672	-1727.985473632812	40.09308624267578	-175.1629943847656	-1669.531494140625	321.1644287109375	-130.8460693359375	-1510.203491210938	48.64364242553711	-138.3455352783203	-1554.907958984375	54.88759994506836	-193.6452789306641	-1614.377807617188	46.82013702392578	-101.0573043823242	-1769.566650390625	32.32852935791016	-243.3865814208984	
